<svg xmlns="http://www.w3.org/2000/svg" viewBox="0 0 459.1 134.9"><style>.b{fill:#095071;} .o{fill:#FF812A;} .w{fill:#FFFFFF;}</style><path class="w" d="M41 118.5c-1.9 6.1-4.4 11.6-7.3 16.7h-1.6c-1.3 0-2.4-.7-3.1-2-2.8-5-4.9-10.9-6.5-18-1.7 7.9-4.3 14.5-7.6 20h-1.5c-1.4 0-2.5-.7-3.3-2-2.4-4.2-4.4-9-6.2-14.5-1.8-5.5-3-10.9-3.6-16.1H4c1 0 1.9.4 2.6 1.1.7.7 1.1 1.6 1.3 2.6 1.1 6.5 2.9 12.8 5.3 18.8 2.6-6.1 4.6-13.2 6.2-21.2h2.1c2.8 0 4.5 1.4 5.1 4.3 1.1 5.6 2.9 11.3 5.3 16.9 3-7.3 5-14.8 6.1-22.4h3.4c.8 0 1.5.3 2 .8.6.5.8 1.3.8 2.2.2 1.5-.9 5.8-3.2 12.8zM69.7 118.7c0 2.3-.9 3.9-2.8 4.8-1.8.9-4.9 1.4-9.2 1.4h-4.2c.2 1.6 1 2.8 2.3 3.8 1.3 1 2.9 1.4 4.8 1.4 3.5 0 6.1-.8 7.8-2.4h.2v2c0 3.8-3.1 5.8-9.2 5.8-3.3 0-6.2-1.2-8.8-3.6-2.5-2.4-3.8-5.5-3.8-9.2 0-4.2 1.2-7.6 3.5-10.1s5.3-3.8 9-3.8c2.8 0 5.2.9 7.2 2.7 2.2 1.9 3.2 4.3 3.2 7.2zm-6-.7c0-1.3-.4-2.2-1.3-2.9-.9-.6-2-1-3.5-1s-2.8.5-3.8 1.6-1.5 2.3-1.6 3.9v.9h2.8c2.9 0 4.9-.2 5.9-.5 1-.5 1.5-1.1 1.5-2zM87.1 131.3c0 2.6-1.4 3.8-4.3 3.8-2.6 0-4.6-.7-6-2-1.4-1.4-2.1-3.3-2.1-5.9v-26.4h1.8c1.5 0 2.6.4 3.4 1.2.8.8 1.1 1.8 1.1 3.1v21.5c0 1.3.3 2.1 1 2.6s1.8.7 3.3.7H87v1.4zM109.5 117.6h-.2c-.4-.8-1.3-1.4-2.5-1.9s-2.7-.7-4.4-.7c-1.9 0-3.5.7-4.9 2-1.4 1.3-2.1 2.9-2.1 4.8 0 2.3.6 4.2 1.9 5.7 1.3 1.4 3 2.2 5.1 2.2 3.3 0 5.5-.8 6.7-2.4h.2v2.9c0 1.5-.7 2.8-2.1 3.8-1.4 1-3.2 1.5-5.5 1.5-3.6 0-6.6-1.2-9.2-3.7-2.6-2.4-3.9-5.5-3.9-9.1 0-3.8 1.2-7 3.7-9.6 2.5-2.6 5.8-3.9 10-3.9 2 0 3.7.5 5 1.6 1.3 1.1 2 2.4 2 3.9v2.9zM112.9 122.6c0-4 1.1-7.3 3.3-9.9s5.3-3.9 9.3-3.9c3.7 0 6.6 1.3 8.8 3.8 2.2 2.5 3.3 5.6 3.3 9.1 0 4-1.1 7.3-3.3 9.9-2.2 2.6-5.3 3.9-9.3 3.9-3.7 0-6.6-1.3-8.8-3.8-2.2-2.5-3.3-5.5-3.3-9.1zm18.1 0c0-5.4-2-8.1-6.1-8.1-1.8 0-3.1.7-4.1 2s-1.4 3.1-1.4 5.3c0 5.4 2 8.1 6.1 8.1 1.8 0 3.2-.7 4.1-2 1-1.3 1.4-3.1 1.4-5.3zM179.7 134.9h-1.6c-1.7 0-2.9-.4-3.7-1.2-.8-.8-1.1-1.9-1.1-3.5v-9.8c0-2-.4-3.5-1.3-4.5-.8-1-2-1.5-3.4-1.5-1.3 0-2.4.5-3.1 1.4-.8.9-1.2 2.2-1.2 3.9v15.2h-1.7c-1.4 0-2.5-.4-3.4-1.2-.8-.8-1.3-1.9-1.3-3.4v-9.8c0-2-.4-3.5-1.3-4.5s-2-1.5-3.5-1.5c-1.3 0-2.3.5-3.1 1.4-.8 1-1.2 2.3-1.2 4v15h-1.7c-1.3 0-2.4-.4-3.3-1.3-.9-.8-1.3-2-1.3-3.4v-9.9c0-3.6 1-6.4 2.9-8.5 1.9-2.1 4.7-3.1 8.5-3.1 3.2 0 5.8 1.3 7.8 4 .8-1.2 1.8-2.2 3.1-2.9 1.3-.7 2.7-1.1 4.2-1.1 3.1 0 5.6.9 7.6 2.8s3 4.5 3 8v15.4zM207.3 118.7c0 2.3-.9 3.9-2.8 4.8-1.8.9-4.9 1.4-9.2 1.4h-4.2c.2 1.6 1 2.8 2.3 3.8 1.3 1 2.9 1.4 4.8 1.4 3.5 0 6.1-.8 7.8-2.4h.2v2c0 3.8-3.1 5.8-9.2 5.8-3.3 0-6.2-1.2-8.8-3.6-2.5-2.4-3.8-5.5-3.8-9.2 0-4.2 1.2-7.6 3.5-10.1s5.3-3.8 9-3.8c2.8 0 5.2.9 7.2 2.7 2.2 1.9 3.2 4.3 3.2 7.2zm-5.9-.7c0-1.3-.4-2.2-1.3-2.9-.9-.6-2-1-3.5-1s-2.8.5-3.8 1.6-1.5 2.3-1.6 3.9v.9h2.8c2.9 0 4.9-.2 5.9-.5 1-.5 1.5-1.1 1.5-2z"/><path class="o" d="M245.6 104.6c0 .8-.4 1.6-1.2 2.4-.8.8-1.7 1.2-2.7 1.2h-6v26.7h-2.6c-1.2 0-2.1-.4-2.8-1.1-.7-.8-1.1-1.8-1.1-3.2v-22.4h-9.3v-2.1c0-.9.3-1.7 1-2.4s1.7-1.1 2.9-1.1h21.8v2zM263.7 115.6h-.2c-1.3-.5-2.5-.8-3.7-.8-2.9 0-4.4 1.8-4.4 5.4v14.7h-1.8c-1.5 0-2.6-.4-3.4-1.1s-1.2-1.7-1.2-3v-11.7c0-2.8.8-5.2 2.3-7.1 1.6-1.9 3.9-2.9 7.1-2.9 1.8 0 3.1.4 4 1.2.9.8 1.3 1.8 1.3 2.9v2.4zM289.7 123.5c0 8-3.7 12-11.2 12-3.2 0-5.9-1-8.1-3.1-2.1-2.1-3.2-4.9-3.2-8.5v-14.5h1.2c3.5 0 5.3 1.5 5.3 4.5v9.4c0 2.2.5 3.9 1.4 5 .9 1.1 2.2 1.6 3.7 1.6 1.4 0 2.4-.5 3.2-1.5.8-1 1.2-2.6 1.2-4.6v-14.3h1.1c3.5 0 5.3 1.5 5.3 4.5v9.5zM314.2 126.9c0 2.7-.9 4.8-2.8 6.3-1.8 1.5-4.5 2.3-7.9 2.3-2.3 0-4.2-.5-5.8-1.5-1.6-1-2.4-2.2-2.4-3.5v-2.9h.2c.7.7 1.8 1.2 3.2 1.7s2.9.7 4.4.7c3.1 0 4.6-.9 4.6-2.8 0-.8-.4-1.3-1.1-1.8-.7-.4-2.1-.8-4.2-1-2.7-.4-4.7-1.1-6-2.2-1.3-1.1-2-2.6-2-4.5 0-2.5 1-4.5 3-6.3 2-1.7 4.6-2.6 7.8-2.6 2.6 0 4.7.6 6.1 1.7 1.4 1.1 2.1 2.4 2.1 3.8v2.4h-.2c-.7-.7-1.7-1.3-3-1.7-1.4-.4-2.8-.7-4.3-.7-3.4 0-5.1.9-5.1 2.8 0 .7.3 1.2 1 1.5.6.3 2 .7 4.1 1 5.6.9 8.3 3.4 8.3 7.3zM321.4 100.9c1.5 0 2.6.4 3.3 1.1.7.8 1.1 1.8 1.1 3.1v15.2c3.4-4.5 6-7.6 7.8-9.3 1.2-1.1 2.9-1.7 5.1-1.7h3.6v.2c-.9.7-2.4 2.4-4.8 5-2.3 2.6-4.2 4.8-5.6 6.6 3.2 3.9 5.3 6.4 6.3 7.4 1.1 1.1 1.9 1.8 2.6 2.2.7.4 1.4.8 2.3 1.1-.3 1.1-.8 1.9-1.5 2.4-.6.5-1.6.8-2.8.8-1.6 0-3-.6-4.2-1.8-2.2-2.3-5.2-5.9-8.9-10.9v12.4h-2c-1.5 0-2.5-.3-3.3-1.1s-1.1-1.9-1.1-3.4v-29.6h2.1zM366.2 126.2c0 2.7-.9 4.9-2.7 6.6s-4.1 2.6-7 2.6h-1.3c-3 0-5.4-.8-7.4-2.3s-2.9-3.5-2.9-5.8c0-2.5 1-4.4 3-5.8 2-1.4 5.2-2.2 9.7-2.2h2.2v-.3c0-1.8-.4-3-1.3-3.7-.9-.7-2.3-1-4.2-1-2 0-3.8.3-5.1.9-1.4.6-2.4 1.3-3 2h-.2v-2c0-1.6.8-3.1 2.3-4.4 1.5-1.3 3.9-1.9 7-1.9 1.5 0 2.9.2 4.1.6 1.2.4 2.4 1 3.4 1.8s1.8 2 2.4 3.6c.6 1.5.9 3.4.9 5.5v5.8zm-6.2.1v-2.5h-2.3c-2.3 0-3.9.3-4.8.8-.9.5-1.4 1.3-1.4 2.4 0 1 .4 1.8 1.2 2.3.8.6 1.9.8 3.2.8 2.7.1 4.1-1.2 4.1-3.8zM391.8 112.4c0 1.5-.7 4.1-2.2 8.1-2.2 6.1-4.7 11-7.4 14.7H381c-.9 0-1.7-.2-2.3-.6-.6-.4-1.2-1-1.9-2-1.8-2.8-3.6-6.5-5.3-11.2-1.7-4.7-2.7-8.7-3-12h3.4c1 0 1.9.3 2.6.9.7.6 1.1 1.3 1.2 2.1 1.1 5.7 2.7 10.7 4.9 14.9 2.8-5.5 4.6-11.4 5.6-17.9h2.7c1.1 0 1.8.2 2.3.7.4.5.6 1.3.6 2.3zM417.2 118.7c0 2.3-.9 3.9-2.8 4.8-1.8.9-4.9 1.4-9.2 1.4H401c.2 1.6 1 2.8 2.3 3.8 1.3 1 2.9 1.4 4.8 1.4 3.5 0 6.1-.8 7.8-2.4h.2v2c0 3.8-3.1 5.8-9.2 5.8-3.3 0-6.2-1.2-8.8-3.6-2.5-2.4-3.8-5.5-3.8-9.2 0-4.2 1.2-7.6 3.5-10.1s5.3-3.8 9-3.8c2.8 0 5.2.9 7.2 2.7 2.1 1.9 3.2 4.3 3.2 7.2zm-6-.7c0-1.3-.4-2.2-1.3-2.9-.9-.6-2-1-3.5-1s-2.8.5-3.8 1.6-1.5 2.3-1.6 3.9v.9h2.8c2.9 0 4.9-.2 5.9-.5 1-.5 1.5-1.1 1.5-2zM422.3 110.4c0-1.2.1-2.1.4-2.8.3-.7.7-1.4 1.5-2.3 1-1.2 2-1.8 3-1.8h1.5v5.8h8.8v2.6c0 .8-.3 1.5-1 2.1-.7.6-1.6.9-2.8.9h-5.1v10c0 3.1 1.3 4.6 4 4.6 2.1 0 3.6-.3 4.6-.9h.2v2.3c0 1.3-.5 2.4-1.4 3.1s-2.3 1.1-4.1 1.1c-3.2 0-5.5-.8-7.1-2.5-1.6-1.6-2.4-4-2.4-7v-15.2zM459.5 126.9c0 2.7-.9 4.8-2.8 6.3-1.8 1.5-4.5 2.3-7.9 2.3-2.3 0-4.2-.5-5.8-1.5-1.6-1-2.4-2.2-2.4-3.5v-2.9h.2c.7.7 1.8 1.2 3.2 1.7s2.9.7 4.4.7c3.1 0 4.6-.9 4.6-2.8 0-.8-.4-1.3-1.1-1.8-.7-.4-2.1-.8-4.2-1-2.7-.4-4.7-1.1-6-2.2-1.3-1.1-2-2.6-2-4.5 0-2.5 1-4.5 3-6.3 2-1.7 4.6-2.6 7.8-2.6 2.6 0 4.7.6 6.1 1.7 1.4 1.1 2.1 2.4 2.1 3.8v2.4h-.2c-.7-.7-1.7-1.3-3-1.7-1.4-.4-2.8-.7-4.3-.7-3.4 0-5.1.9-5.1 2.8 0 .7.3 1.2 1 1.5.6.3 2 .7 4.1 1 5.6.9 8.3 3.4 8.3 7.3z"/><g><path class="w" d="M387.8 77.2c-.1-.3-.2-.7-.3-1-4-19.6-.9-41.2-15.2-57.7-13.9-16-35.1-7.3-43.6 8.3-4.4-10.6-9.5-21.7-21.9-25.6-12.7-4-25.4 3.8-34.7 10.9-25.2 19.3-36.4 47.9-51.8 73.5-.2.4-.1.8.2 1.1.2.3.7.5 1.1.1.1 0 .1-.1.2-.1l.1-.1c9.7-8.7 18-19 25.9-29.1C255.3 48 262.9 38.3 273 31c3.2-2 6.6-3.7 10.4-5 16.4-4.1 34.4 7.3 38.9 22.9.5 1.7 2.4 1.7 3.5.8 2.6-.5 4.4-3.5 5.6-5.5.3-.4.5-.9.7-1.3 2-2.6 3.7-5.5 5.8-7.4 7-6.4 17.5-7.8 25.8-2.9 7.8 4.6 11.1 14.5 13.5 22.3 2.1 6.8 3.6 13.6 6.1 20.3.2.8.4 1.7.6 2.5.2.9.9 1.3 1.6 1.3 1.2.6 2.9-.3 2.3-1.8zM302.7 3.9c2.3.3 4.3.9 6.1 1.8-1.9-.8-3.9-1.5-6.1-1.8z"/><path class="o" d="M457.7 68.8c-.9-3.7-2.3-8.2-4.8-11.7-3.9-11.4-10-22.2-18.3-30.8-16-16.6-36.4-2.8-48.6 10.3-.9.9.3 2 1.3 1.5.3.2.7.3 1.1.1 6.9-2.8 13.6-5.1 21.2-4.7 7.2.3 13.5 4.1 18.6 8.6 5.9 5.2 9.6 11.9 13.5 18.5 3.8 6.5 9 12.2 12.1 19l.1.1c.4 1.3 1 2.5 2 3.8.4.6 1.6.8 2 0 2.1-4.7 1-10-.2-14.7zm-26.1-40l-.3-.3v-.1c1.1 1 2.2 2.1 3.2 3.3-.9-1.1-1.9-2-2.9-2.9z"/></g></svg>
